<?xml version="1.0" encoding="UTF-8" standalone="no"?>
<!-- Created with Inkscape (http://www.inkscape.org/) -->

<svg
   version="1.1"
   id="svg1"
   width="498"
   height="345"
   viewBox="0 0 498 345"
   sodipodi:docname="amo.svg"
   inkscape:version="1.4.2 (ebf0e940d0, 2025-05-08)"
   inkscape:export-filename="AMO_WHITE_CONTOUR.png"
   inkscape:export-xdpi="400"
   inkscape:export-ydpi="400"
   xmlns:inkscape="http://www.inkscape.org/namespaces/inkscape"
   xmlns:sodipodi="http://sodipodi.sourceforge.net/DTD/sodipodi-0.dtd"
   xmlns="http://www.w3.org/2000/svg"
   xmlns:svg="http://www.w3.org/2000/svg">
  <defs
     id="defs1" />
  <sodipodi:namedview
     id="namedview1"
     pagecolor="#ffffff"
     bordercolor="#000000"
     borderopacity="0.25"
     inkscape:showpageshadow="2"
     inkscape:pageopacity="0.0"
     inkscape:pagecheckerboard="0"
     inkscape:deskcolor="#d1d1d1"
     inkscape:zoom="1.8955823"
     inkscape:cx="249"
     inkscape:cy="172.50636"
     inkscape:window-width="1920"
     inkscape:window-height="1011"
     inkscape:window-x="0"
     inkscape:window-y="0"
     inkscape:window-maximized="1"
     inkscape:current-layer="g1" />
  <g
     inkscape:groupmode="layer"
     inkscape:label="Image"
     id="g1">
    <path
       style="fill:none;fill-opacity:1;stroke-width:5;stroke-dasharray:none;stroke:#d00000;stroke-opacity:1;stroke-linejoin:round;paint-order:normal"
       d="m 141.04494,325.45232 c 0,0 -71.969285,-102.5885 17.39044,-192.22191 41.89102,-42.019335 86.38749,-40.305025 111.17909,-38.850925 94.3886,5.53616 125.89339,99.490745 125.89339,99.490745 0,0 12.36623,-70.38602 -57.37544,-129.061535 -57.8913,-48.705494 -121.79021,-37.519273 -121.79021,-37.519273 0,0 -100.00507,10.612821 -133.102686,100.958948 -47.464493,129.56322 57.805416,197.20395 57.805416,197.20395 z"
       id="path1"
       sodipodi:nodetypes="csscscsc" />
    <path
       style="fill:none;fill-opacity:1;stroke:#f7f7f7;stroke-opacity:1;stroke-width:5;stroke-dasharray:none;paint-order:normal"
       d="m 210.85851,235.37389 c 0,0 -23.36261,41.23746 -32.37184,56.21243 l -29.87531,14.35581 -16.10999,-26.47716 c 0,0 23.59373,-10.10339 34.9535,-16.68557 22.01446,-12.75583 43.40364,-27.40551 43.40364,-27.40551 z"
       id="path2"
       sodipodi:nodetypes="ccccsc" />
    <path
       style="fill:none;fill-opacity:1;stroke:#00d01c;stroke-opacity:1;stroke-width:5;stroke-dasharray:none;stroke-linejoin:round;paint-order:normal"
       d="m 261.90159,171.86511 -24.07856,38.24299 -42.15444,-9.41482 27.76888,33.27582 -23.42824,36.45014 40.66832,-15.46388 28.3657,34.37791 -2.24581,-44.26709 42.08904,-15.69214 -43.67264,-11.6202 z"
       id="path3" />
    <path
       style="fill:none;fill-opacity:1;stroke:#f7f7f7;stroke-opacity:1;stroke-width:5;stroke-dasharray:none;paint-order:normal"
       d="m 349.53602,144.65974 c 0,0 -25.76332,10.31266 -38.64498,17.74869 -12.57788,7.26067 -37.73363,26.3414 -37.73363,26.3414 l 1.59384,21.93452 13.64461,4.09783 c 0,0 23.86592,-16.9604 36.56222,-24.30021 12.73146,-7.36014 41.6356,-20.08568 41.6356,-20.08568 z"
       id="path4"
       sodipodi:nodetypes="cscccscc" />
    <path
       style="fill:none;fill-opacity:1;stroke:#0194de;stroke-opacity:1;stroke-width:5;stroke-dasharray:none;stroke-linecap:round;stroke-linejoin:round;paint-order:normal"
       d="m 156.95123,148.87892 c 0,0 25.94631,11.66325 38.20056,19.20953 13.47002,8.29496 38.97226,28.31419 38.97226,28.31419 l -2.79978,5.59306 c 0,0 -20.21069,-5.43687 -30.40857,-7.77348 -10.20837,-2.33901 -30.79118,-6.24819 -30.79118,-6.24819 l -29.85605,-15.27312 c 0,0 4.28978,-10.02701 7.62794,-14.59268 2.43011,-3.32371 9.05482,-9.22931 9.05482,-9.22931 z"
       id="path5"
       sodipodi:nodetypes="csccsccsc" />
    <path
       style="fill:none;fill-opacity:1;stroke:#0194de;stroke-opacity:1;stroke-width:5;stroke-dasharray:none;stroke-linecap:round;stroke-linejoin:round;paint-order:normal"
       d="m 66.653837,141.0995 c 0,0 -3.075479,11.23802 -4.075242,17.46684 -0.879776,5.48127 -1.563373,17.66345 -1.563373,17.66345 0,0 -32.131686,18.86834 -23.832013,62.16268 7.09582,37.01458 49.614335,44.84816 49.614335,44.84816 0,0 3.102245,10.93419 5.582133,16.01434 2.634427,5.39672 9.765303,15.14008 9.765303,15.14008 0,0 -29.173067,7.24404 -69.951549,-27.41629 C 11.134037,269.07899 6.0110365,233.74344 6.0110365,233.74344 c 0,0 -2.53802,-27.90714 11.9072805,-54.46246 13.649776,-25.09289 48.73552,-38.18148 48.73552,-38.18148 z"
       id="path6"
       sodipodi:nodetypes="cscscscscsc" />
    <path
       style="fill:none;fill-opacity:1;stroke:#ffff01;stroke-opacity:1;stroke-width:5;stroke-dasharray:none;stroke-linecap:round;stroke-linejoin:round;paint-order:normal"
       d="m 300.76187,244.12669 c 0,0 27.85143,18.79072 42.81974,26.31528 20.44799,10.2792 46.14823,14.53428 46.14823,14.53428 0,0 24.40711,3.16355 48.58783,-12.37885 17.1292,-11.00996 24.04994,-37.9731 24.04994,-37.9731 0,0 4.14499,-25.94734 -10.94836,-45.71166 -12.8592,-16.83877 -40.87376,-23.38356 -40.87376,-23.38356 l -13.20893,-29.24227 c 0,0 37.8684,-8.00973 71.40052,31.52045 28.71458,33.85089 22.71447,60.09525 22.71447,60.09525 0,0 1.04457,23.9095 -13.93025,45.28812 -19.6233,28.01497 -44.52178,35.51333 -44.52178,35.51333 0,0 -20.64282,6.83462 -34.18064,5.83614 -35.02005,-2.5829 -36.52611,-5.53504 -36.52611,-5.53504 0,0 -23.49471,-8.86894 -34.99124,-14.79943 -16.21054,-8.36221 -48.12997,-28.07867 -48.12997,-28.07867 l -0.75347,-13.03222 z"
       id="path7"
       sodipodi:nodetypes="cscscsccscscscsccc" />
  </g>
</svg>
